# xmcd
#
# Track frame offsets:
#	150
#	20324
#	37150
#	52590
#	65172
#	75886
#	92023
#	104631
#	116898
#	135177
#	153066
#	165883
#
# Disc length: 2370 seconds
#
# Revision: 1
# Processed by: cddbd v1.5.2PL0 Copyright (c) Steve Scherf et al.
# Submitted via: audiograbber 1.83.01
#
DISCID=8509400c
DTITLE=International Music Express - IME 2006-08
DYEAR=2006
DGENRE=
TTITLE0=Every-little Thing About You - Raul Malo
TTITLE1=Brown Eyed Girl - Sonny Ruiz
TTITLE2=Christine  - Eugene Rutan
TTITLE3=Don´t  - Mary Drake
TTITLE4=Little Too Much  - Tweeb Gladwell
TTITLE5=Now I´m Country  - Shane Freeman
TTITLE6=Schönes Tirol  - Gabriel
TTITLE7=Sitting In A Honky Tonk  - J R Smarski
TTITLE8=Take Me To Your Leader  - Cherie Ronhoved
TTITLE9=The Happy Song  - Gabriel
TTITLE10=What The Cowgirls Do  - Marjorie Michelle Rose
TTITLE11=Your Kinda Love  - Marjorie Michelle Rose
EXTD=
EXTT0=
EXTT1=
EXTT2=
EXTT3=
EXTT4=
EXTT5=
EXTT6=
EXTT7=
EXTT8=
EXTT9=
EXTT10=
EXTT11=
PLAYORDER=
